# xmcd
#
# Track frame offsets: 
#        150
#        14683
#        29255
#        45804
#        71664
#
# Disc length: 1209 seconds
#
# Revision: 0
# Processed by: cddbd v1.5.2PL0 Copyright (c) Steve Scherf et al.
# Submitted via: ExactAudioCopy v0.95b3
#
DISCID=3704b705
DTITLE=Olaf Henning - Cowboy und Indianer
DYEAR=2008
DGENRE=Pop
TTITLE0=Cowboy und Indianer (Hit Version)
TTITLE1=Cowboy und Indianer (Party Rock Version)
TTITLE2=Cowboy und Indianer (Extended Version)
TTITLE3=Cowboy und Indianer (Karaoke Version)
TTITLE4=Cowboy und Indianer (Bonus Video-Clip)
EXTD=
EXTT0=
EXTT1=
EXTT2=
EXTT3=
EXTT4=
PLAYORDER=
